<?xml version="1.0" encoding="UTF-8" standalone="no"?>
<!DOCTYPE svg PUBLIC "-//W3C//DTD SVG 1.1//EN"
 "http://www.w3.org/Graphics/SVG/1.1/DTD/svg11.dtd">
<!-- Generated by graphviz version 2.47.0 (20210316.0004)
 -->
<!-- Title: dependencies Pages: 1 -->
<svg width="663pt" height="211pt"
 viewBox="0.00 0.00 663.00 211.00" xmlns="http://www.w3.org/2000/svg" xmlns:xlink="http://www.w3.org/1999/xlink">
<g id="graph0" class="graph" transform="scale(1 1) rotate(0) translate(4 207)">
<title>dependencies</title>
<polygon fill="white" stroke="transparent" points="-4,4 -4,-207 659,-207 659,4 -4,4"/>
<text text-anchor="start" x="306.51" y="-42.4" font-family="sans-serif" font-weight="bold" font-size="14.00">Legend</text>
<polygon fill="#ffffb3" stroke="transparent" points="93.5,-10 93.5,-30 113.5,-30 113.5,-10 93.5,-10"/>
<text text-anchor="start" x="117.13" y="-15.4" font-family="sans-serif" font-size="14.00"> &#160;Declarations</text>
<polygon fill="#8dd3c7" stroke="transparent" points="206.5,-10 206.5,-30 226.5,-30 226.5,-10 206.5,-10"/>
<text text-anchor="start" x="230.23" y="-15.4" font-family="sans-serif" font-size="14.00"> &#160;Module</text>
<polygon fill="#80b1d3" stroke="transparent" points="292.5,-10 292.5,-30 312.5,-30 312.5,-10 292.5,-10"/>
<text text-anchor="start" x="316.28" y="-15.4" font-family="sans-serif" font-size="14.00"> &#160;Bootstrap</text>
<polygon fill="#fdb462" stroke="transparent" points="389.5,-10 389.5,-30 409.5,-30 409.5,-10 389.5,-10"/>
<text text-anchor="start" x="413.17" y="-15.4" font-family="sans-serif" font-size="14.00"> &#160;Providers</text>
<polygon fill="#fb8072" stroke="transparent" points="485.5,-10 485.5,-30 505.5,-30 505.5,-10 485.5,-10"/>
<text text-anchor="start" x="509.23" y="-15.4" font-family="sans-serif" font-size="14.00"> &#160;Exports</text>
<g id="clust1" class="cluster">
<title>cluster_TodoModule</title>
<polygon fill="none" stroke="black" stroke-dasharray="1,5" points="8,-70 8,-195 647,-195 647,-70 8,-70"/>
</g>
<g id="clust2" class="cluster">
<title>cluster_TodoModule_declarations</title>
<polygon fill="none" stroke="black" points="168,-78 168,-130 639,-130 639,-78 168,-78"/>
</g>
<g id="clust6" class="cluster">
<title>cluster_TodoModule_imports</title>
<polygon fill="none" stroke="black" points="16,-78 16,-130 160,-130 160,-78 16,-78"/>
</g>
<!-- TodoDetailComponent -->
<g id="node1" class="node">
<title>TodoDetailComponent</title>
<polygon fill="#ffffb3" stroke="black" points="630.59,-122 485.41,-122 485.41,-86 630.59,-86 630.59,-122"/>
<text text-anchor="middle" x="558" y="-99.8" font-family="Times,serif" font-size="14.00">TodoDetailComponent</text>
</g>
<!-- TodoModule -->
<g id="node4" class="node">
<title>TodoModule</title>
<polygon fill="#8dd3c7" stroke="black" points="363.6,-187 360.6,-191 339.6,-191 336.6,-187 274.4,-187 274.4,-151 363.6,-151 363.6,-187"/>
<text text-anchor="middle" x="319" y="-164.8" font-family="Times,serif" font-size="14.00">TodoModule</text>
</g>
<!-- TodoDetailComponent&#45;&gt;TodoModule -->
<g id="edge1" class="edge">
<title>TodoDetailComponent&#45;&gt;TodoModule</title>
<path fill="none" stroke="black" d="M558,-122.11C558,-141.34 558,-169 558,-169 558,-169 373.67,-169 373.67,-169"/>
<polygon fill="black" stroke="black" points="373.67,-165.5 363.67,-169 373.67,-172.5 373.67,-165.5"/>
</g>
<!-- TodoFormComponent -->
<g id="node2" class="node">
<title>TodoFormComponent</title>
<polygon fill="#ffffb3" stroke="black" points="467.72,-122 326.28,-122 326.28,-86 467.72,-86 467.72,-122"/>
<text text-anchor="middle" x="397" y="-99.8" font-family="Times,serif" font-size="14.00">TodoFormComponent</text>
</g>
<!-- TodoFormComponent&#45;&gt;TodoModule -->
<g id="edge2" class="edge">
<title>TodoFormComponent&#45;&gt;TodoModule</title>
<path fill="none" stroke="black" d="M344.97,-122.11C344.97,-122.11 344.97,-140.99 344.97,-140.99"/>
<polygon fill="black" stroke="black" points="341.47,-140.99 344.97,-150.99 348.47,-140.99 341.47,-140.99"/>
</g>
<!-- TodoListComponent -->
<g id="node3" class="node">
<title>TodoListComponent</title>
<polygon fill="#ffffb3" stroke="black" points="308.16,-122 175.84,-122 175.84,-86 308.16,-86 308.16,-122"/>
<text text-anchor="middle" x="242" y="-99.8" font-family="Times,serif" font-size="14.00">TodoListComponent</text>
</g>
<!-- TodoListComponent&#45;&gt;TodoModule -->
<g id="edge3" class="edge">
<title>TodoListComponent&#45;&gt;TodoModule</title>
<path fill="none" stroke="black" d="M291.39,-122.11C291.39,-122.11 291.39,-140.99 291.39,-140.99"/>
<polygon fill="black" stroke="black" points="287.89,-140.99 291.39,-150.99 294.89,-140.99 287.89,-140.99"/>
</g>
<!-- AppRoutingModule -->
<g id="node5" class="node">
<title>AppRoutingModule</title>
<polygon fill="#8dd3c7" stroke="black" points="152.27,-122 149.27,-126 128.27,-126 125.27,-122 23.73,-122 23.73,-86 152.27,-86 152.27,-122"/>
<text text-anchor="middle" x="88" y="-99.8" font-family="Times,serif" font-size="14.00">AppRoutingModule</text>
</g>
<!-- AppRoutingModule&#45;&gt;TodoModule -->
<g id="edge4" class="edge">
<title>AppRoutingModule&#45;&gt;TodoModule</title>
<path fill="none" stroke="black" d="M88,-122.11C88,-141.34 88,-169 88,-169 88,-169 264.19,-169 264.19,-169"/>
<polygon fill="black" stroke="black" points="264.19,-172.5 274.19,-169 264.19,-165.5 264.19,-172.5"/>
</g>
</g>
</svg>
