<?xml version="1.0" encoding="UTF-8" standalone="no"?>
<!DOCTYPE svg PUBLIC "-//W3C//DTD SVG 1.1//EN"
 "http://www.w3.org/Graphics/SVG/1.1/DTD/svg11.dtd">
<!-- Generated by graphviz version 2.47.0 (20210316.0004)
 -->
<!-- Title: dependencies Pages: 1 -->
<svg width="809pt" height="352pt"
 viewBox="0.00 0.00 809.00 352.00" xmlns="http://www.w3.org/2000/svg" xmlns:xlink="http://www.w3.org/1999/xlink">
<g id="graph0" class="graph" transform="scale(1 1) rotate(0) translate(4 348)">
<title>dependencies</title>
<polygon fill="white" stroke="transparent" points="-4,4 -4,-348 805,-348 805,4 -4,4"/>
<text text-anchor="start" x="379.51" y="-42.4" font-family="sans-serif" font-weight="bold" font-size="14.00">Legend</text>
<polygon fill="#ffffb3" stroke="transparent" points="166.5,-10 166.5,-30 186.5,-30 186.5,-10 166.5,-10"/>
<text text-anchor="start" x="190.13" y="-15.4" font-family="sans-serif" font-size="14.00"> &#160;Declarations</text>
<polygon fill="#8dd3c7" stroke="transparent" points="279.5,-10 279.5,-30 299.5,-30 299.5,-10 279.5,-10"/>
<text text-anchor="start" x="303.23" y="-15.4" font-family="sans-serif" font-size="14.00"> &#160;Module</text>
<polygon fill="#80b1d3" stroke="transparent" points="365.5,-10 365.5,-30 385.5,-30 385.5,-10 365.5,-10"/>
<text text-anchor="start" x="389.28" y="-15.4" font-family="sans-serif" font-size="14.00"> &#160;Bootstrap</text>
<polygon fill="#fdb462" stroke="transparent" points="462.5,-10 462.5,-30 482.5,-30 482.5,-10 462.5,-10"/>
<text text-anchor="start" x="486.17" y="-15.4" font-family="sans-serif" font-size="14.00"> &#160;Providers</text>
<polygon fill="#fb8072" stroke="transparent" points="558.5,-10 558.5,-30 578.5,-30 578.5,-10 558.5,-10"/>
<text text-anchor="start" x="582.23" y="-15.4" font-family="sans-serif" font-size="14.00"> &#160;Exports</text>
<g id="clust1" class="cluster">
<title>cluster_AppModule</title>
<polygon fill="none" stroke="black" stroke-dasharray="1,5" points="8,-70 8,-336 298,-336 298,-70 8,-70"/>
</g>
<g id="clust2" class="cluster">
<title>cluster_AppModule_declarations</title>
<polygon fill="none" stroke="black" points="168,-146 168,-198 290,-198 290,-146 168,-146"/>
</g>
<g id="clust4" class="cluster">
<title>cluster_AppModule_imports</title>
<polygon fill="none" stroke="black" points="16,-78 16,-198 160,-198 160,-78 16,-78"/>
</g>
<g id="clust6" class="cluster">
<title>cluster_AppModule_bootstrap</title>
<polygon fill="none" stroke="black" points="45,-276 45,-328 169,-328 169,-276 45,-276"/>
</g>
<g id="clust14" class="cluster">
<title>cluster_TodoModule</title>
<polygon fill="none" stroke="black" stroke-dasharray="1,5" points="306,-70 306,-138 793,-138 793,-70 306,-70"/>
</g>
<g id="clust15" class="cluster">
<title>cluster_TodoModule_declarations</title>
<polygon fill="none" stroke="black" points="314,-78 314,-130 785,-130 785,-78 314,-78"/>
</g>
<!-- AppComponent -->
<g id="node1" class="node">
<title>AppComponent</title>
<polygon fill="#ffffb3" stroke="black" points="281.94,-190 176.06,-190 176.06,-154 281.94,-154 281.94,-190"/>
<text text-anchor="middle" x="229" y="-167.8" font-family="Times,serif" font-size="14.00">AppComponent</text>
</g>
<!-- AppModule -->
<g id="node2" class="node">
<title>AppModule</title>
<polygon fill="#8dd3c7" stroke="black" points="148.66,-255 145.66,-259 124.66,-259 121.66,-255 65.34,-255 65.34,-219 148.66,-219 148.66,-255"/>
<text text-anchor="middle" x="107" y="-232.8" font-family="Times,serif" font-size="14.00">AppModule</text>
</g>
<!-- AppComponent&#45;&gt;AppModule -->
<g id="edge1" class="edge">
<title>AppComponent&#45;&gt;AppModule</title>
<path fill="none" stroke="black" d="M229,-190.11C229,-209.34 229,-237 229,-237 229,-237 158.99,-237 158.99,-237"/>
<polygon fill="black" stroke="black" points="158.99,-233.5 148.99,-237 158.99,-240.5 158.99,-233.5"/>
</g>
<!-- AppComponent  -->
<g id="node5" class="node">
<title>AppComponent </title>
<polygon fill="#80b1d3" stroke="black" points="161.44,-320 52.56,-320 52.56,-284 161.44,-284 161.44,-320"/>
<text text-anchor="middle" x="107" y="-297.8" font-family="Times,serif" font-size="14.00">AppComponent </text>
</g>
<!-- AppModule&#45;&gt;AppComponent  -->
<g id="edge4" class="edge">
<title>AppModule&#45;&gt;AppComponent </title>
<path fill="none" stroke="black" stroke-dasharray="1,5" d="M107,-255.11C107,-255.11 107,-273.99 107,-273.99"/>
<polygon fill="black" stroke="black" points="103.5,-273.99 107,-283.99 110.5,-273.99 103.5,-273.99"/>
</g>
<!-- AppRoutingModule -->
<g id="node3" class="node">
<title>AppRoutingModule</title>
<polygon fill="#8dd3c7" stroke="black" points="152.27,-122 149.27,-126 128.27,-126 125.27,-122 23.73,-122 23.73,-86 152.27,-86 152.27,-122"/>
<text text-anchor="middle" x="88" y="-99.8" font-family="Times,serif" font-size="14.00">AppRoutingModule</text>
</g>
<!-- AppRoutingModule&#45;&gt;AppModule -->
<g id="edge2" class="edge">
<title>AppRoutingModule&#45;&gt;AppModule</title>
<path fill="none" stroke="black" d="M57.49,-122.21C57.49,-158.64 57.49,-237 57.49,-237 57.49,-237 58.26,-237 58.26,-237"/>
<polygon fill="black" stroke="black" points="55.23,-240.5 65.23,-237 55.23,-233.5 55.23,-240.5"/>
</g>
<!-- TodoModule -->
<g id="node4" class="node">
<title>TodoModule</title>
<polygon fill="#8dd3c7" stroke="black" points="151.6,-190 148.6,-194 127.6,-194 124.6,-190 62.4,-190 62.4,-154 151.6,-154 151.6,-190"/>
<text text-anchor="middle" x="107" y="-167.8" font-family="Times,serif" font-size="14.00">TodoModule</text>
</g>
<!-- AppRoutingModule&#45;&gt;TodoModule -->
<g id="edge8" class="edge">
<title>AppRoutingModule&#45;&gt;TodoModule</title>
<path fill="none" stroke="black" d="M84.72,-122.22C84.72,-122.22 84.72,-143.73 84.72,-143.73"/>
<polygon fill="black" stroke="black" points="81.22,-143.73 84.72,-153.73 88.22,-143.73 81.22,-143.73"/>
</g>
<!-- TodoModule&#45;&gt;AppModule -->
<g id="edge3" class="edge">
<title>TodoModule&#45;&gt;AppModule</title>
<path fill="none" stroke="black" d="M107,-190.11C107,-190.11 107,-208.99 107,-208.99"/>
<polygon fill="black" stroke="black" points="103.5,-208.99 107,-218.99 110.5,-208.99 103.5,-208.99"/>
</g>
<!-- TodoDetailComponent -->
<g id="node6" class="node">
<title>TodoDetailComponent</title>
<polygon fill="#ffffb3" stroke="black" points="776.59,-122 631.41,-122 631.41,-86 776.59,-86 776.59,-122"/>
<text text-anchor="middle" x="704" y="-99.8" font-family="Times,serif" font-size="14.00">TodoDetailComponent</text>
</g>
<!-- TodoDetailComponent&#45;&gt;TodoModule -->
<g id="edge5" class="edge">
<title>TodoDetailComponent&#45;&gt;TodoModule</title>
<path fill="none" stroke="black" d="M704,-122.13C704,-132.71 704,-144 704,-144 704,-144 129.28,-144 129.28,-144 129.28,-144 129.28,-144.98 129.28,-144.98"/>
<polygon fill="black" stroke="black" points="125.78,-143.79 129.28,-153.79 132.78,-143.79 125.78,-143.79"/>
</g>
<!-- TodoFormComponent -->
<g id="node7" class="node">
<title>TodoFormComponent</title>
<polygon fill="#ffffb3" stroke="black" points="613.72,-122 472.28,-122 472.28,-86 613.72,-86 613.72,-122"/>
<text text-anchor="middle" x="543" y="-99.8" font-family="Times,serif" font-size="14.00">TodoFormComponent</text>
</g>
<!-- TodoFormComponent&#45;&gt;TodoModule -->
<g id="edge6" class="edge">
<title>TodoFormComponent&#45;&gt;TodoModule</title>
<path fill="none" stroke="black" d="M543,-122.2C543,-128.03 543,-133 543,-133 543,-133 107,-133 107,-133 107,-133 107,-143.87 107,-143.87"/>
<polygon fill="black" stroke="black" points="103.5,-143.87 107,-153.87 110.5,-143.87 103.5,-143.87"/>
</g>
<!-- TodoListComponent -->
<g id="node8" class="node">
<title>TodoListComponent</title>
<polygon fill="#ffffb3" stroke="black" points="454.16,-122 321.84,-122 321.84,-86 454.16,-86 454.16,-122"/>
<text text-anchor="middle" x="388" y="-99.8" font-family="Times,serif" font-size="14.00">TodoListComponent</text>
</g>
<!-- TodoListComponent&#45;&gt;TodoModule -->
<g id="edge7" class="edge">
<title>TodoListComponent&#45;&gt;TodoModule</title>
<path fill="none" stroke="black" d="M321.78,-104C253.5,-104 156.93,-104 156.93,-104 156.93,-104 156.93,-172 156.93,-172 156.93,-172 156.39,-172 156.39,-172"/>
<polygon fill="black" stroke="black" points="161.59,-168.5 151.59,-172 161.59,-175.5 161.59,-168.5"/>
</g>
</g>
</svg>
